<svg xmlns="http://www.w3.org/2000/svg" version="1.1" xmlns:xlink="http://www.w3.org/1999/xlink"
    width="512" height="512" x="0" y="0" viewBox="0 0 512 512"
    style="enable-background:new 0 0 512 512" xml:space="preserve" class=""><g><path fill="#d7e9ff" d="m387.945 457.117-306.682.862c-14.042.039-24.543-12.989-21.362-26.771l81.72-359.504c2.298-9.934 11.132-17.025 21.328-17.053l141.043-.397c10.195-.029 19.07 7.012 21.423 16.933l83.74 359.039c3.26 13.764-7.168 26.851-21.21 26.891z" opacity="0.35" data-original="#d7e9ff" class=""></path><path fill="#94c1ff" d="m301.5 36.356.05 17.895-136.158.383-.05-17.895c-.028-10.028 8.075-18.264 18.103-18.292l99.849-.281c10.028-.028 18.177 8.162 18.206 18.19zM166.526 457.749l136.158-.383.05 17.895c.028 10.028-8.075 18.264-18.103 18.292l-99.849.281c-10.028.028-18.177-8.161-18.205-18.19z" opacity="0.5" data-original="#94c1ff" class=""></path><path fill="#116fff" d="M54.293 429.917c-3.993 17.304 9.13 33.816 26.905 33.816h.082l79.508-.214.033 12.141c.039 13.133 10.669 23.926 23.904 23.926h.071l99.849-.281c13.183-.034 23.878-10.83 23.844-24.065l-.036-12.147 79.506-.223h.004c17.805-.055 30.889-16.646 26.796-33.955l-35.534-152.494c14.927-12.184 19.501-33.669 18.474-51.336-1.131-19.578-7.766-39.45-8.009-58.11-.404-30.924 22.025-54.428 45.339-38.765 7.001 4.701 11.452 11.868 11.901 19.165.191 3.169 2.843 5.604 6.095 5.391a5.755 5.755 0 0 0 5.391-6.095c-.667-10.856-7.013-21.327-16.97-28.013-29.818-20.021-63.822 5.499-63.264 48.467.266 20.674 6.9 39.113 8.032 58.627.701 12.107-1.82 27.352-10.07 37.467l-45.08-193.313c-.004-.007-.004-.015-.007-.026-2.528-10.632-11.291-19.648-23.766-21.114l-.037-12.425c-.039-13.192-10.717-23.93-23.904-23.93h-.071l-99.849.281c-13.207.031-23.879 10.836-23.84 24.061l.034 12.422c-11.48 1.409-20.976 9.716-23.653 21.274-44.339 195.334 2.426-10.588-81.678 359.468zm328.624-86.719c-17.455 49-54.781 88.421-102.723 108.468l-141.885.399c-25.217-10.321-48.18-26.406-66.631-46.663l4.02-17.68c49.498 37.07 113.584 49.325 174.397 31.042 56.44-16.927 101.728-58.069 124.399-111.813l8.423 36.247zM162.964 60.404l141.045-.397h.041c7.516 0 14.112 5.537 15.76 12.486l12.73 54.582c-18.159 5.906-37.148 8.926-56.522 8.982-49.335-.195-95.865-18.918-130.909-53.725l2.122-9.333c1.591-6.897 7.995-12.572 15.733-12.595zM343.895 175.76c-21.553 8.525-44.312 12.877-67.727 12.945h-.524c-53.937 0-104.82-23.338-140.116-64.186l6.608-29.107c36.422 33.716 83.354 52.153 133.347 52.153h.566c20.248-.058 40.06-3.328 59.078-9.406zm-68.252 24.453h.554c24.291-.068 47.905-4.53 70.327-13.179l8.506 36.471c-24.597 11.766-51.058 17.769-78.718 17.847h-.517c-59.096 0-114.776-28.356-149.548-76.056l6.154-27.074c37.167 39.546 88.723 61.991 143.242 61.991zm.154 52.648h.547c28.532-.079 55.845-6.172 81.342-17.973l8.319 35.668c-26.468 14.87-58.276 23.357-89.541 23.445-64.817-.112-125.462-33.916-159.061-89.745l5.539-24.405c37.154 45.948 93.364 73.01 152.855 73.01zm-42.354 48.044c-45.007 18.486-94.658 18.074-138.202.914l18.577-81.778c29.032 42.268 73.643 70.754 119.625 80.864zM92.669 313.106c50.934 19.558 108.916 17.819 160.971-8.888 9.433 1.022 21.374 1.291 22.307 1.291h.547c13.49-.038 29.18-1.798 42.178-4.664-22.956 26.796-52.76 46.175-87.071 56.458-48.647 14.613-101.312 8.55-145.204-16.593zm-8.907 39.191c47.98 26.351 102.491 30.643 151.145 16.027 41.622-12.473 76.957-37.604 102.397-72.642 10.011-3.28 23.872-9.349 31.431-13.414l1.053 4.514c-18.617 58.26-64.485 103.412-123.002 120.962-58.2 17.487-120.838 5.443-168.313-32.175zm-2.512 99.928h-.049c-10.308 0-18.038-9.549-15.689-19.742l3.096-13.619c12.912 13.075 27.671 24.28 43.634 33.274zm203.365 35.573-99.853.281h-.037c-6.831 0-12.373-5.607-12.396-12.452l-.034-12.137 124.652-.356.034 12.141c.015 6.881-5.538 12.508-12.366 12.523zm103.31-36.434h.004l-81.735.229a196.316 196.316 0 0 0 81.255-89.093l16.105 69.05c2.403 10.131-5.262 19.782-15.629 19.814zM183.459 24.202l99.853-.281h.037c6.81 0 12.38 5.586 12.396 12.452l.037 12.137-124.652.352-.034-12.141c-.023-6.836 5.501-12.504 12.363-12.519z" opacity="1" data-original="#116fff" class=""></path></g></svg>