<svg id="Layer_1" enable-background="new 0 0 512 512" height="250" viewBox="0 0 512 512" width="250" xmlns="http://www.w3.org/2000/svg" version="1.1" xmlns:xlink="http://www.w3.org/1999/xlink" xmlns:svgjs="http://svgjs.dev/svgjs"><g width="100%" height="100%" transform="matrix(1,0,0,1,0,0)"><g clip-rule="evenodd" fill-rule="evenodd"><path d="m45.636 70.13c0-13.561 11.042-24.57 24.598-24.57h116.306c13.537 0 24.551 11.037 24.551 24.57v116.309c0 13.538-11.009 24.571-24.551 24.571h-116.306c-13.561 0-24.598-11.004-24.598-24.571zm266.668 58.159c0-39.41 32.067-71.479 71.477-71.479 39.435 0 71.477 32.048 71.477 71.479 0 39.433-32.041 71.48-71.477 71.48-39.411 0-71.477-32.069-71.477-71.48zm-11.227 197.27c0-13.532 11.016-24.568 24.551-24.568h116.353c13.535 0 24.551 11.036 24.551 24.568v116.311c0 13.537-11.01 24.57-24.551 24.57h-116.353c-13.541 0-24.551-11.033-24.551-24.57zm-180.467-10.32c1.725-2.988 4.328-4.469 7.776-4.469 3.426 0 6.017 1.502 7.729 4.469l73.88 127.985c1.77 2.98 1.753 5.989.004 8.974-1.73 2.952-4.292 4.471-7.724 4.471h-147.824c-3.432 0-6.016-1.509-7.729-4.48-1.713-2.97-1.714-5.979 0-8.949z" fill="#000000" fill-opacity="0.3333333333333333" data-original-color="#b9dcffff" stroke="none" stroke-opacity="1"/><path d="m208.758 451.47c-1.456 2.53-3.57 3.76-6.482 3.76h-147.825c-2.912 0-5.026-1.229-6.482-3.76-1.456-2.519-1.456-4.98 0-7.51l73.889-128.001c1.456-2.519 3.57-3.749 6.529-3.749 2.912 0 5.026 1.23 6.482 3.749l73.889 128.001c1.503 2.53 1.503 4.99 0 7.51zm-46.175-151.51c-7.14-12.371-19.917-19.751-34.197-19.751s-27.104 7.38-34.244 19.751l-73.888 127.999c-7.14 12.371-7.14 27.14 0 39.509 7.14 12.371 19.917 19.762 34.197 19.762h147.825c14.28 0 27.057-7.391 34.197-19.762 7.14-12.369 7.14-27.138 0-39.509zm221.198-241.711c38.659 0 70.037 31.421 70.037 70.039 0 38.621-31.378 70.04-70.037 70.04-38.612 0-70.038-31.419-70.038-70.04.001-38.618 31.426-70.039 70.038-70.039zm0 172.081c56.274 0 102.073-45.781 102.073-102.041 0-56.269-45.799-102.04-102.073-102.04-56.227 0-102.026 45.771-102.026 102.04 0 56.26 45.799 102.041 102.026 102.041zm81.311 211.54c0 12.76-10.381 23.131-23.111 23.131h-116.353c-12.73 0-23.111-10.371-23.111-23.131v-116.311c0-12.749 10.381-23.129 23.111-23.129h116.353c12.73 0 23.111 10.38 23.111 23.129zm-23.111-171.44h-116.353c-30.392 0-55.1 24.731-55.1 55.129v116.311c0 30.401 24.708 55.129 55.1 55.129h116.353c30.392 0 55.1-24.729 55.1-55.129v-116.311c0-30.399-24.708-55.129-55.1-55.129zm-394.905-200.3c0-12.751 10.381-23.13 23.158-23.13h116.306c12.73 0 23.111 10.38 23.111 23.13v116.309c0 12.761-10.381 23.131-23.111 23.131h-116.306c-12.777 0-23.158-10.37-23.158-23.131zm23.158 171.44h116.306c30.392 0 55.1-24.731 55.1-55.132v-116.308c0-30.401-24.708-55.132-55.1-55.132h-116.306c-30.392 0-55.147 24.731-55.147 55.132v116.309c0 30.4 24.755 55.131 55.147 55.131z" fill="#000000" fill-opacity="1" data-original-color="#2e58ffff" stroke="none" stroke-opacity="1"/></g></g></svg>