<svg enable-background="new 0 0 32 32" viewBox="0 0 32 32" xmlns="http://www.w3.org/2000/svg"
    width="300" height="300" version="1.1" xmlns:xlink="http://www.w3.org/1999/xlink"
    xmlns:svgjs="http://svgjs.dev/svgjs">
    <g width="100%" height="100%" transform="matrix(1,0,0,1,0,0)">
        <g id="guide" display="none">
            <g display="inline" fill="rgb(0,0,0)">
                <path
                    d="m30 29h-28c-1.105 0-2-.895-2-2v-22c0-1.105.895-2 2-2h28c1.105 0 2 .895 2 2v22c0 1.105-.895 2-2 2z"
                    opacity=".2" fill="#000000" fill-opacity="1" data-original-color="#000000ff"
                    stroke="none" stroke-opacity="1" />
                <path
                    d="m29 2v28c0 1.105-.895 2-2 2h-22c-1.105 0-2-.895-2-2v-28c0-1.105.895-2 2-2h22c1.105 0 2 .895 2 2z"
                    opacity=".2" fill="#000000" fill-opacity="1" data-original-color="#000000ff"
                    stroke="none" stroke-opacity="1" />
            </g>
        </g>
        <g id="icon_x5F_light" display="none">
            <g display="inline">
                <g>
                    <path
                        d="m29.5 32c-.276 0-.5-.224-.5-.5v-1.429c0-.434-.353-.786-.786-.786h-1.768c-.22 0-.414-.144-.478-.354-.188-.614-.442-1.223-.753-1.809-.103-.194-.067-.433.088-.588l1.253-1.253c.306-.307.306-.805 0-1.111l-2.728-2.728c-.307-.307-.805-.307-1.111 0l-1.252 1.253c-.156.155-.394.19-.588.088-.586-.311-1.195-.563-1.81-.753-.21-.064-.353-.258-.353-.478v-1.769c0-.433-.353-.785-.786-.785h-3.857c-.433 0-.786.353-.786.785v1.769c0 .22-.143.413-.353.478-.615.189-1.224.442-1.81.753-.194.103-.432.068-.588-.088l-1.252-1.253c-.307-.307-.805-.307-1.111 0l-2.728 2.728c-.306.307-.306.805 0 1.111l1.253 1.253c.155.155.191.394.088.588-.311.586-.564 1.194-.753 1.809-.064.21-.258.354-.478.354h-1.767c-.433 0-.786.353-.786.786v1.429c0 .276-.224.5-.5.5s-.5-.224-.5-.5v-1.429c0-.985.801-1.786 1.786-1.786h1.405c.152-.439.333-.875.542-1.3l-.996-.996c-.337-.337-.523-.785-.523-1.263s.186-.926.523-1.263l2.728-2.728c.696-.695 1.828-.695 2.525 0l.996.996c.425-.209.86-.39 1.3-.542v-1.405c0-.984.801-1.785 1.786-1.785h3.857c.984 0 1.786.801 1.786 1.785v1.405c.44.152.875.333 1.3.542l.996-.996c.696-.695 1.829-.695 2.525 0l2.728 2.728c.337.337.523.785.523 1.263s-.186.926-.523 1.263l-.996.996c.208.425.39.86.542 1.3h1.405c.984 0 1.786.801 1.786 1.786v1.429c-.001.276-.225.5-.501.5z"
                        fill="#000000" fill-opacity="1" data-original-color="#000000ff"
                        stroke="none" stroke-opacity="1" />
                </g>
                <g>
                    <path
                        d="m23.5 32c-.276 0-.5-.224-.5-.5 0-3.859-3.14-7-7-7s-7 3.141-7 7c0 .276-.224.5-.5.5s-.5-.224-.5-.5c0-4.411 3.589-8 8-8s8 3.589 8 8c0 .276-.224.5-.5.5z"
                        fill="#000000" fill-opacity="1" data-original-color="#000000ff"
                        stroke="none" stroke-opacity="1" />
                </g>
                <g>
                    <path
                        d="m11.5 18c-.276 0-.5-.224-.5-.5v-7.5h-2.5c-.194 0-.371-.112-.453-.288s-.055-.383.069-.532l7.5-9c.19-.229.578-.229.769 0l7.5 9c.124.149.151.356.068.532-.082.176-.259.288-.453.288h-2.5v2.5c0 .276-.224.5-.5.5s-.5-.224-.5-.5v-3c0-.276.224-.5.5-.5h1.933l-6.433-7.719-6.433 7.719h1.933c.276 0 .5.224.5.5v8c0 .276-.224.5-.5.5z"
                        fill="#000000" fill-opacity="1" data-original-color="#000000ff"
                        stroke="none" stroke-opacity="1" />
                </g>
                <g>
                    <path
                        d="m14.5 15c-.276 0-.5-.224-.5-.5v-4c0-.276.224-.5.5-.5s.5.224.5.5v4c0 .276-.224.5-.5.5z"
                        fill="#000000" fill-opacity="1" data-original-color="#000000ff"
                        stroke="none" stroke-opacity="1" />
                </g>
                <g>
                    <path
                        d="m17.5 17c-.276 0-.5-.224-.5-.5v-3c0-.276.224-.5.5-.5s.5.224.5.5v3c0 .276-.224.5-.5.5z"
                        fill="#000000" fill-opacity="1" data-original-color="#000000ff"
                        stroke="none" stroke-opacity="1" />
                </g>
            </g>
        </g>
        <g id="icon_x5F_bold_00000036225723645940723810000003738561331128402077_">
            <g>
                <g>
                    <path
                        d="m28.214 28.285h-1.405c-.152-.439-.333-.875-.542-1.3l.996-.996c.337-.337.523-.785.523-1.263s-.186-.926-.523-1.263l-2.728-2.728c-.697-.695-1.83-.695-2.525 0l-.996.996c-.425-.209-.86-.39-1.3-.542v-1.405c0-.984-.801-1.785-1.786-1.785h-3.857c-.984 0-1.786.801-1.786 1.785v1.405c-.44.152-.875.333-1.3.542l-.995-.995c-.698-.695-1.83-.695-2.525 0l-2.728 2.728c-.337.337-.523.785-.523 1.263s.186.926.523 1.263l.996.996c-.208.425-.39.86-.542 1.3h-1.405c-.985-.001-1.786.8-1.786 1.785v1.429c0 .276.224.5.5.5h6c.276 0 .5-.224.5-.5 0-3.859 3.14-7 7-7s7 3.141 7 7c0 .276.224.5.5.5h6c.276 0 .5-.224.5-.5v-1.429c0-.985-.801-1.786-1.786-1.786z"
                        fill="#000000" fill-opacity="0.67" data-original-color="#000000ff"
                        stroke="none" stroke-opacity="1" />
                </g>
                <g>
                    <path
                        d="m11.5 18.25c-.414 0-.75-.336-.75-.75v-7.25h-2.25c-.291 0-.556-.168-.679-.432s-.084-.575.103-.798l7.5-9c.285-.342.867-.342 1.152 0l7.5 9c.187.224.227.535.103.799s-.388.431-.679.431h-2.25v2.25c0 .414-.336.75-.75.75s-.75-.336-.75-.75v-3c0-.414.336-.75.75-.75h1.399l-5.899-7.078-5.899 7.078h1.399c.414 0 .75.336.75.75v8c0 .414-.336.75-.75.75z"
                        fill="#000000" fill-opacity="1" data-original-color="#000000ff"
                        stroke="none" stroke-opacity="1" />
                </g>
                <g>
                    <path
                        d="m14.5 15.25c-.414 0-.75-.336-.75-.75v-4c0-.414.336-.75.75-.75s.75.336.75.75v4c0 .414-.336.75-.75.75z"
                        fill="#000000" fill-opacity="1" data-original-color="#000000ff"
                        stroke="none" stroke-opacity="1" />
                </g>
                <g>
                    <path
                        d="m17.5 17.25c-.414 0-.75-.336-.75-.75v-3c0-.414.336-.75.75-.75s.75.336.75.75v3c0 .414-.336.75-.75.75z"
                        fill="#000000" fill-opacity="1" data-original-color="#000000ff"
                        stroke="none" stroke-opacity="1" />
                </g>
            </g>
        </g>
        <g id="icon_x5F_coloring" display="none">
            <g display="inline">
                <g>
                    <path
                        d="m8.5 31.5c0-4.142 3.358-7.5 7.5-7.5s7.5 3.358 7.5 7.5h6v-1.429c0-.71-.576-1.286-1.286-1.286h-1.768c-.203-.662-.47-1.295-.79-1.897l1.253-1.253c.502-.502.502-1.316 0-1.818l-2.727-2.727c-.502-.502-1.316-.502-1.818 0l-1.253 1.253c-.602-.319-1.235-.586-1.897-.79v-1.768c0-.71-.576-1.286-1.286-1.286h-3.857c-.71 0-1.286.576-1.286 1.286v1.768c-.662.203-1.295.47-1.897.79l-1.252-1.253c-.502-.502-1.316-.502-1.818 0l-2.728 2.728c-.502.502-.502 1.316 0 1.818l1.253 1.253c-.319.602-.586 1.235-.79 1.897h-1.767c-.71 0-1.286.576-1.286 1.286v1.429z"
                        fill="#000000" fill-opacity="1" data-original-color="#000000ff"
                        stroke="none" stroke-opacity="1" />
                </g>
                <g>
                    <path
                        d="m29.5 32h-6c-.276 0-.5-.224-.5-.5 0-3.859-3.14-7-7-7s-7 3.141-7 7c0 .276-.224.5-.5.5h-6c-.276 0-.5-.224-.5-.5v-1.429c0-.985.801-1.786 1.786-1.786h1.405c.152-.439.333-.875.542-1.3l-.996-.996c-.337-.337-.523-.785-.523-1.263s.186-.926.523-1.263l2.728-2.728c.696-.695 1.828-.695 2.525 0l.996.996c.425-.209.86-.39 1.3-.542v-1.405c0-.984.801-1.785 1.786-1.785h3.857c.984 0 1.786.801 1.786 1.785v1.405c.44.152.875.333 1.3.542l.996-.996c.696-.695 1.829-.695 2.525 0l2.728 2.728c.337.337.523.785.523 1.263s-.186.926-.523 1.263l-.996.996c.208.425.39.86.542 1.3h1.405c.984 0 1.786.801 1.786 1.786v1.429c-.001.276-.225.5-.501.5zm-5.516-1h5.016v-.929c0-.434-.353-.786-.786-.786h-1.768c-.22 0-.414-.144-.478-.354-.188-.614-.442-1.223-.753-1.809-.103-.194-.067-.433.088-.588l1.253-1.253c.306-.307.306-.805 0-1.111l-2.728-2.728c-.307-.307-.805-.307-1.111 0l-1.252 1.253c-.156.155-.394.19-.588.088-.586-.311-1.195-.563-1.81-.753-.21-.064-.353-.258-.353-.478v-1.769c0-.433-.353-.785-.786-.785h-3.857c-.433 0-.786.353-.786.785v1.769c0 .22-.143.413-.353.478-.615.189-1.224.442-1.81.753-.194.103-.432.068-.588-.088l-1.252-1.253c-.307-.307-.805-.307-1.111 0l-2.728 2.728c-.306.307-.306.805 0 1.111l1.253 1.253c.155.155.191.394.088.588-.311.586-.564 1.194-.753 1.809-.064.21-.258.354-.478.354h-1.767c-.433 0-.786.353-.786.786v.929h5.016c.259-4.179 3.741-7.5 7.984-7.5s7.726 3.321 7.984 7.5z"
                        fill="#000000" fill-opacity="1" data-original-color="#000000ff"
                        stroke="none" stroke-opacity="1" />
                </g>
                <g>
                    <path d="m20.5 12.5v-3h3l-7.5-9-7.5 9h3v8z" fill="#000000" fill-opacity="1"
                        data-original-color="#000000ff" stroke="none" stroke-opacity="1" />
                </g>
                <g>
                    <path
                        d="m11.5 18c-.276 0-.5-.224-.5-.5v-7.5h-2.5c-.194 0-.371-.112-.453-.288s-.055-.383.069-.532l7.5-9c.19-.229.578-.229.769 0l7.5 9c.124.149.151.356.068.532-.082.176-.259.288-.453.288h-2.5v2.5c0 .276-.224.5-.5.5s-.5-.224-.5-.5v-3c0-.276.224-.5.5-.5h1.933l-6.433-7.719-6.433 7.719h1.933c.276 0 .5.224.5.5v8c0 .276-.224.5-.5.5z"
                        fill="#000000" fill-opacity="1" data-original-color="#000000ff"
                        stroke="none" stroke-opacity="1" />
                </g>
                <g>
                    <path
                        d="m14.5 15c-.276 0-.5-.224-.5-.5v-4c0-.276.224-.5.5-.5s.5.224.5.5v4c0 .276-.224.5-.5.5z"
                        fill="#000000" fill-opacity="1" data-original-color="#000000ff"
                        stroke="none" stroke-opacity="1" />
                </g>
                <g>
                    <path
                        d="m17.5 17c-.276 0-.5-.224-.5-.5v-3c0-.276.224-.5.5-.5s.5.224.5.5v3c0 .276-.224.5-.5.5z"
                        fill="#000000" fill-opacity="1" data-original-color="#000000ff"
                        stroke="none" stroke-opacity="1" />
                </g>
            </g>
        </g>
        <g id="icon_x5F_duotone" display="none">
            <g display="inline">
                <g>
                    <path
                        d="m8.5 31.5c0-4.142 3.358-7.5 7.5-7.5s7.5 3.358 7.5 7.5h6v-1.429c0-.71-.576-1.286-1.286-1.286h-1.768c-.203-.662-.47-1.295-.79-1.897l1.253-1.253c.502-.502.502-1.316 0-1.818l-2.727-2.727c-.502-.502-1.316-.502-1.818 0l-1.253 1.253c-.602-.319-1.235-.586-1.897-.79v-1.768c0-.71-.576-1.286-1.286-1.286h-3.857c-.71 0-1.286.576-1.286 1.286v1.768c-.662.203-1.295.47-1.897.79l-1.252-1.253c-.502-.502-1.316-.502-1.818 0l-2.728 2.728c-.502.502-.502 1.316 0 1.818l1.253 1.253c-.319.602-.586 1.235-.79 1.897h-1.767c-.71 0-1.286.576-1.286 1.286v1.429z"
                        fill="#000000" fill-opacity="1" data-original-color="#000000ff"
                        stroke="none" stroke-opacity="1" />
                </g>
                <g>
                    <path
                        d="m11.5 18c-.276 0-.5-.224-.5-.5v-7.5h-2.5c-.194 0-.371-.112-.453-.288s-.055-.383.069-.532l7.5-9c.19-.229.578-.229.769 0l7.5 9c.124.149.151.356.068.532-.082.176-.259.288-.453.288h-2.5v2.5c0 .276-.224.5-.5.5s-.5-.224-.5-.5v-3c0-.276.224-.5.5-.5h1.933l-6.433-7.719-6.433 7.719h1.933c.276 0 .5.224.5.5v8c0 .276-.224.5-.5.5z"
                        fill="#000000" fill-opacity="1" data-original-color="#000000ff"
                        stroke="none" stroke-opacity="1" />
                </g>
                <g>
                    <path
                        d="m14.5 15c-.276 0-.5-.224-.5-.5v-4c0-.276.224-.5.5-.5s.5.224.5.5v4c0 .276-.224.5-.5.5z"
                        fill="#000000" fill-opacity="1" data-original-color="#000000ff"
                        stroke="none" stroke-opacity="1" />
                </g>
                <g>
                    <path
                        d="m17.5 17c-.276 0-.5-.224-.5-.5v-3c0-.276.224-.5.5-.5s.5.224.5.5v3c0 .276-.224.5-.5.5z"
                        fill="#000000" fill-opacity="1" data-original-color="#000000ff"
                        stroke="none" stroke-opacity="1" />
                </g>
            </g>
        </g>
    </g>
</svg>