<svg id="regular" enable-background="new 0 0 24 24" height="300" viewBox="0 0 24 24" width="300" xmlns="http://www.w3.org/2000/svg" version="1.1" xmlns:xlink="http://www.w3.org/1999/xlink" xmlns:svgjs="http://svgjs.dev/svgjs"><g width="100%" height="100%" transform="matrix(1,0,0,1,0,0)"><path d="m23.25 10h-12.5c-.285 0-.546-.162-.672-.418-.126-.255-.097-.561.077-.788l2.901-3.794-2.901-3.794c-.173-.227-.203-.532-.077-.788s.387-.418.672-.418h12.5c.414 0 .75.336.75.75v8.5c0 .414-.336.75-.75.75z" fill="#000000" fill-opacity="0.3137254901960784" data-original-color="#ffc107ff" stroke="none" stroke-opacity="1"/><circle cx="5.5" cy="14.5" fill="#000000" r="3" fill-opacity="0.3137254901960784" data-original-color="#2196f3ff" stroke="none" stroke-opacity="1"/><circle cx="17" cy="17" fill="#000000" r="2" fill-opacity="0.3137254901960784" data-original-color="#4caf50ff" stroke="none" stroke-opacity="1"/><path d="m18.25 20h-2.5c-1.517 0-2.75 1.233-2.75 2.75v.5c0 .414.336.75.75.75h6.5c.414 0 .75-.336.75-.75v-.5c0-1.517-1.233-2.75-2.75-2.75z" fill="#000000" fill-opacity="0.3137254901960784" data-original-color="#4caf50ff" stroke="none" stroke-opacity="1"/><path d="m8.25 19h-5.5c-1.517 0-2.75 1.233-2.75 2.75v1.5c0 .414.336.75.75.75h9.5c.414 0 .75-.336.75-.75v-1.5c0-1.517-1.233-2.75-2.75-2.75z" fill="#000000" fill-opacity="0.3137254901960784" data-original-color="#2196f3ff" stroke="none" stroke-opacity="1"/><path d="m17 19c-1.103 0-2-.897-2-2s.897-2 2-2 2 .897 2 2-.897 2-2 2zm0-2.5c-.276 0-.5.225-.5.5s.224.5.5.5.5-.225.5-.5-.224-.5-.5-.5z" fill="#000000" fill-opacity="1" data-original-color="#000000ff" stroke="none" stroke-opacity="1"/><path d="m20.25 24c-.414 0-.75-.336-.75-.75v-.5c0-.689-.561-1.25-1.25-1.25h-2.5c-.689 0-1.25.561-1.25 1.25v.5c0 .414-.336.75-.75.75s-.75-.336-.75-.75v-.5c0-1.517 1.233-2.75 2.75-2.75h2.5c1.517 0 2.75 1.233 2.75 2.75v.5c0 .414-.336.75-.75.75z" fill="#000000" fill-opacity="1" data-original-color="#000000ff" stroke="none" stroke-opacity="1"/><path d="m5.5 17.5c-1.654 0-3-1.346-3-3s1.346-3 3-3 3 1.346 3 3-1.346 3-3 3zm0-4.5c-.827 0-1.5.673-1.5 1.5s.673 1.5 1.5 1.5 1.5-.673 1.5-1.5-.673-1.5-1.5-1.5z" fill="#000000" fill-opacity="1" data-original-color="#000000ff" stroke="none" stroke-opacity="1"/><path d="m10.25 24c-.414 0-.75-.336-.75-.75v-1.5c0-.689-.561-1.25-1.25-1.25h-5.5c-.689 0-1.25.561-1.25 1.25v1.5c0 .414-.336.75-.75.75s-.75-.336-.75-.75v-1.5c0-1.517 1.233-2.75 2.75-2.75h5.5c1.517 0 2.75 1.233 2.75 2.75v1.5c0 .414-.336.75-.75.75z" fill="#000000" fill-opacity="1" data-original-color="#000000ff" stroke="none" stroke-opacity="1"/><path d="m23.25 24c-.414 0-.75-.336-.75-.75v-22.5c0-.414.336-.75.75-.75s.75.336.75.75v22.5c0 .414-.336.75-.75.75z" fill="#000000" fill-opacity="1" data-original-color="#000000ff" stroke="none" stroke-opacity="1"/><path d="m23.25 10h-12.5c-.285 0-.546-.162-.672-.418s-.097-.561.077-.788l2.901-3.794-2.901-3.794c-.173-.228-.203-.532-.077-.788s.387-.418.672-.418h12.5c.414 0 .75.336.75.75v8.5c0 .414-.336.75-.75.75zm-10.982-1.5h10.232v-7h-10.232l2.328 3.044c.206.27.206.643 0 .912z" fill="#000000" fill-opacity="1" data-original-color="#000000ff" stroke="none" stroke-opacity="1"/></g></svg>