<svg viewBox="0 0 32 32" xmlns="http://www.w3.org/2000/svg" width="300" height="300" version="1.1" xmlns:xlink="http://www.w3.org/1999/xlink" xmlns:svgjs="http://svgjs.dev/svgjs"><g width="100%" height="100%" transform="matrix(1,0,0,1,0,0)"><g id="Layer_2" data-name="Layer 2"><path d="m30 5.89v18.32a3.94 3.94 0 0 1 -.32 1.6l-1 2.28a1.22 1.22 0 0 1 -2.36 0l-1-2.28a3.94 3.94 0 0 1 -.32-1.6v-18.32c0-1.62.85-2.89 1.94-2.89h1.12c1.09 0 1.94 1.27 1.94 2.89z" fill="#000000" fill-opacity="0.3137254901960784" data-original-color="#b4d89cff" stroke="none" stroke-opacity="1"/><path d="m16.82 3h-11.64a3.1 3.1 0 0 0 -3.18 3v20a3.1 3.1 0 0 0 3.18 3h11.64a3.1 3.1 0 0 0 3.18-3v-20a3.1 3.1 0 0 0 -3.18-3zm1.06 23a1 1 0 0 1 -1.06 1h-11.64a1 1 0 0 1 -1.06-1v-20a1 1 0 0 1 1.06-1h11.64a1 1 0 0 1 1.06 1zm7.79-23h-1.34c-1.33 0-2.33 1.27-2.33 2.89v18.32a3.4 3.4 0 0 0 .38 1.6l1.2 2.28a1.56 1.56 0 0 0 2.84 0l1.2-2.28a3.4 3.4 0 0 0 .38-1.6v-18.32c0-1.62-1-2.89-2.33-2.89zm.33 21.21a1.41 1.41 0 0 1 -.15.67l-.85 1.61-.85-1.61a1.41 1.41 0 0 1 -.15-.67v-18.32a1.1 1.1 0 0 1 .33-.89h1.33a1.06 1.06 0 0 1 .34.89zm-17.89-14.21a1 1 0 0 1 -1 1h-.11a1 1 0 0 1 0-2h.1a1 1 0 0 1 1.01 1zm7.89 0a1.07 1.07 0 0 1 -1.12 1h-3.76a1.07 1.07 0 0 1 -1.12-1 1.07 1.07 0 0 1 1.12-1h3.76a1.07 1.07 0 0 1 1.12 1zm-7.89 4a1 1 0 0 1 -1 1h-.11a1 1 0 0 1 0-2h.12a1 1 0 0 1 .99 1zm7.89 0a1.07 1.07 0 0 1 -1.12 1h-3.76a1 1 0 1 1 0-2h3.76a1.07 1.07 0 0 1 1.12 1zm-7.89 4a1 1 0 0 1 -1 1h-.11a1 1 0 0 1 0-2h.1a1 1 0 0 1 1.01 1zm7.89 0a1.07 1.07 0 0 1 -1.12 1h-3.76a1 1 0 1 1 0-2h3.76a1.07 1.07 0 0 1 1.12 1zm-7.89 4a1 1 0 0 1 -1 1h-.11a1 1 0 0 1 0-2h.12a1 1 0 0 1 .99 1zm7.89 0a1.07 1.07 0 0 1 -1.12 1h-3.76a1 1 0 1 1 0-2h3.76a1.07 1.07 0 0 1 1.12 1z" fill="#000000" fill-opacity="0.9607843137254902" data-original-color="#1b2318ff" stroke="none" stroke-opacity="1"/></g></g></svg>