<svg id="Icon" viewBox="0 0 24 24" xmlns="http://www.w3.org/2000/svg" width="300" height="300" version="1.1" xmlns:xlink="http://www.w3.org/1999/xlink" xmlns:svgjs="http://svgjs.dev/svgjs"><g width="100%" height="100%" transform="matrix(1,0,0,1,0,0)"><circle cx="18" cy="16" fill="#000000" r="5" fill-opacity="0.4627450980392157" data-original-color="#75afffff" stroke="none" stroke-opacity="1"/><path d="m19.75 11.659v-5.659c0-1.517-1.233-2.75-2.75-2.75h-12c-1.517 0-2.75 1.233-2.75 2.75v8c0 1.517 1.233 2.75 2.75 2.75h5.316c.185 1.402.868 2.741 2.047 3.704 1.065.87 2.352 1.293 3.631 1.293 1.669 0 3.324-.721 4.46-2.111 1.97-2.413 1.638-5.952-.704-7.977zm-14.75-6.909h12c.017 0 .03.009.047.009l-5.321 3.8c-.433.31-1.016.311-1.452 0l-5.32-3.8c.016 0 .03-.009.047-.009zm5.318 10.5h-5.318c-.689 0-1.25-.561-1.25-1.25v-8c0-.08.031-.149.045-.225l5.606 4.004c.479.341 1.038.512 1.599.512s1.12-.171 1.598-.512l5.607-4.004c.014.076.045.145.045.225v4.709c-.882-.377-1.848-.529-2.828-.429-1.528.154-2.904.895-3.876 2.084-.7.858-1.094 1.861-1.227 2.886zm8.974 3.438c-1.481 1.816-4.165 2.087-5.98.604-1.815-1.482-2.086-4.165-.604-5.98.718-.879 1.735-1.426 2.864-1.541 1.133-.114 2.236.218 3.115.937 1.815 1.482 2.087 4.165.605 5.979zm-.542-2.688c0 .414-.336.75-.75.75h-1.5c-.689 0-1.25-.561-1.25-1.25v-1.579c0-.414.336-.75.75-.75s.75.336.75.75v1.329h1.25c.414 0 .75.336.75.75z" fill="#000000" fill-opacity="1" data-original-color="#112d55ff" stroke="none" stroke-opacity="1"/></g></svg>