<svg id="Layer_1" viewBox="0 0 512 512" xmlns="http://www.w3.org/2000/svg" data-name="Layer 1"
    width="300" height="300" version="1.1" xmlns:xlink="http://www.w3.org/1999/xlink"
    xmlns:svgjs="http://svgjs.dev/svgjs">
    <g width="100%" height="100%" transform="matrix(1,0,0,1,0,0)">
        <path d="m365.249 382.92h20.466v20.494h-20.466z" fill="#9bc8ff"
            fill-opacity="0.35" data-original-color="#9bc8ffff" stroke="none"
            stroke-opacity="1" />
        <path
            d="m266.461 403.811c0 4.393-3.573 7.966-7.966 7.966h-23.074c-4.392 0-7.965-3.573-7.965-7.966v-29.934h-21.854v79.199h82.714v-79.199h-21.854v29.934zm-7.796 42.52h-23.414c-3.867 0-7.002-3.135-7.002-7.002s3.135-7.002 7.002-7.002h23.414c3.867 0 7.002 3.135 7.002 7.002s-3.135 7.002-7.002 7.002z"
            fill="#9bc8ff" fill-opacity="0.35" data-original-color="#9bc8ffff"
            stroke="none" stroke-opacity="1" />
        <path d="m365.249 442.675h20.466v20.493h-20.466z" fill="#9bc8ff"
            fill-opacity="0.35" data-original-color="#9bc8ffff" stroke="none"
            stroke-opacity="1" />
        <path d="m365.249 323.166h20.466v20.465h-20.466z" fill="#9bc8ff"
            fill-opacity="0.35" data-original-color="#9bc8ffff" stroke="none"
            stroke-opacity="1" />
        <path d="m389.734 282.091h42.448l5.323-18.169h-53.094z" fill="#9bc8ff"
            fill-opacity="0.35" data-original-color="#9bc8ffff" stroke="none"
            stroke-opacity="1" />
        <path
            d="m238.171 280.675h-20.551v29.962c0 4.377-3.561 7.938-7.938 7.938h-22.195c-4.377 0-7.938-3.561-7.938-7.938v-29.962h-20.55v79.247l42.028.037c.422-.051.849-.084 1.284-.084h35.858v-79.199zm-28.318 72.453h-22.535c-3.867 0-7.002-3.135-7.002-7.002s3.135-7.002 7.002-7.002h22.535c3.867 0 7.002 3.135 7.002 7.002s-3.135 7.002-7.002 7.002z"
            fill="#9bc8ff" fill-opacity="0.35" data-original-color="#9bc8ffff"
            stroke="none" stroke-opacity="1" />
        <path
            d="m169.715 403.811c0 4.393-3.573 7.966-7.966 7.966h-23.046c-4.393 0-7.966-3.573-7.966-7.966v-29.911l-21.883-.019v79.196h82.743v-79.123l-21.883-.019v29.877zm-7.796 42.52h-23.386c-3.867 0-7.002-3.135-7.002-7.002s3.135-7.002 7.002-7.002h23.386c3.867 0 7.002 3.135 7.002 7.002s-3.135 7.002-7.002 7.002z"
            fill="#9bc8ff" fill-opacity="0.35" data-original-color="#9bc8ffff"
            stroke="none" stroke-opacity="1" />
        <path
            d="m111.604 240.478c0-16.036 13.06-29.083 29.112-29.083h194.229c16.053 0 29.112 13.047 29.112 29.083v9.439h37.389v-67.683l-163.842-94.594-163.983 94.677v259.364c0 6.283 5.404 11.396 12.047 11.396h9.184v-82.488c0-5.908 4.808-10.715 10.716-10.715l6.037.005v-119.401zm74.495-96.18h102.869c13.099 0 23.755 10.656 23.755 23.755s-10.656 23.727-23.755 23.727h-102.869c-13.099 0-23.755-10.644-23.755-23.727s10.656-23.755 23.755-23.755z"
            fill="#9bc8ff" fill-opacity="0.35" data-original-color="#9bc8ffff"
            stroke="none" stroke-opacity="1" />
        <g fill="#59a4ff">
            <path
                d="m416.045 412.117h34.441c3.867 0 7.002-3.135 7.002-7.002s-3.135-7.002-7.002-7.002h-34.441c-3.867 0-7.002 3.135-7.002 7.002s3.135 7.002 7.002 7.002z"
                fill="#59a4ff" fill-opacity="1" data-original-color="#59a4ffff" stroke="none"
                stroke-opacity="1" />
            <path
                d="m463.667 374.217h-47.622c-3.867 0-7.002 3.135-7.002 7.002s3.135 7.002 7.002 7.002h47.622c3.867 0 7.002-3.135 7.002-7.002s-3.135-7.002-7.002-7.002z"
                fill="#59a4ff" fill-opacity="1" data-original-color="#59a4ffff" stroke="none"
                stroke-opacity="1" />
            <path
                d="m463.667 433.971h-47.622c-3.867 0-7.002 3.135-7.002 7.002s3.135 7.002 7.002 7.002h47.622c3.867 0 7.002-3.135 7.002-7.002s-3.135-7.002-7.002-7.002z"
                fill="#59a4ff" fill-opacity="1" data-original-color="#59a4ffff" stroke="none"
                stroke-opacity="1" />
            <path
                d="m450.487 457.867h-34.441c-3.867 0-7.002 3.135-7.002 7.002s3.135 7.002 7.002 7.002h34.441c3.867 0 7.002-3.135 7.002-7.002s-3.135-7.002-7.002-7.002z"
                fill="#59a4ff" fill-opacity="1" data-original-color="#59a4ffff" stroke="none"
                stroke-opacity="1" />
            <path
                d="m483.226 249.918h-67.775v-60.245c3.915 1.421 7.971 2.125 11.996 2.125 12.234 0 24.147-6.339 30.689-17.663l.2-.37c9.071-18.144 3.548-38.306-13.138-47.944l-189.886-109.614c-10.922-6.317-24.491-6.317-35.409-.003l-189.895 109.617c-16.812 9.712-22.635 31.266-13.041 48.13 3.921 7.707 10.992 13.426 19.936 16.114 7.599 2.285 15.589 2.108 22.714-.372v251.989c0 14.005 11.687 25.399 26.051 25.399h236.919v22.337c0 8.862 7.224 16.072 16.102 16.072h144.538c8.878 0 16.102-7.21 16.102-16.072v-223.398c0-8.878-7.224-16.102-16.102-16.102zm-45.721 14.004-5.323 18.169h-42.448l-5.323-18.169zm-379.118-88.98c-4.967 2.864-11.491 3.504-17.453 1.713-5.282-1.588-9.379-4.839-11.536-9.153l-.197-.366c-5.885-10.207-2.38-23.302 7.81-29.188l189.898-109.62c6.497-3.758 14.895-3.759 21.397.003l189.891 109.615c11.923 6.888 12.466 19.671 7.71 29.363-5.938 10.054-18.937 13.483-29.082 7.635l-179.221-103.474zm36.464 195.646v82.488h-9.184c-6.643 0-12.047-5.112-12.047-11.396v-259.363l163.984-94.677 163.843 94.594v67.683h-37.389v-9.439c0-16.036-13.06-29.083-29.112-29.083h-194.23c-16.053 0-29.112 13.047-29.112 29.083v119.401l-6.037-.005c-5.908 0-10.716 4.807-10.716 10.715zm96.747 82.488h-82.743v-79.196l21.883.019v29.911c0 4.393 3.573 7.966 7.966 7.966h23.046c4.393 0 7.966-3.573 7.966-7.966v-29.877l21.883.019v79.123zm-46.856-55.304v-23.861l10.97.01v23.851zm56.287-37.815-42.028-.037v-79.247h20.55v29.962c0 4.377 3.561 7.938 7.938 7.938h22.195c4.377 0 7.938-3.561 7.938-7.938v-29.962h20.551v79.199h-35.858c-.436 0-.862.034-1.284.084zm-7.475-55.388v-23.896h10.062v23.896zm94.762 148.507h-82.714v-79.199h21.854v29.934c0 4.393 3.573 7.966 7.965 7.966h23.074c4.393 0 7.966-3.573 7.966-7.966v-29.934h21.854v79.199zm-46.855-55.304v-23.896h10.997v23.896zm81.126-131.754v187.058h-20.267v-82.488c0-5.908-4.808-10.715-10.716-10.715h-39.429v-82.602c0-5.846-4.744-10.602-10.574-10.602h-86.031c-5.83 0-10.573 4.756-10.573 10.602v82.636l-19.389-.017v-119.413c0-8.314 6.777-15.079 15.108-15.079h194.229c8.331 0 15.108 6.765 15.108 15.079v9.439h-11.366c-8.878 0-16.102 7.224-16.102 16.102zm162.737 223.398c0 1.121-.96 2.068-2.098 2.068h-144.538c-1.138 0-2.098-.947-2.098-2.068v-223.398c0-1.117.98-2.098 2.098-2.098h31.131l7.437 25.386c1.515 5.004 5.333 6.787 8.401 6.787h50.599c3.065 0 6.882-1.781 8.42-6.847l7.419-25.326h31.13c1.117 0 2.098.98 2.098 2.098v223.398z"
                fill="#59a4ff" fill-opacity="1" data-original-color="#59a4ffff" stroke="none"
                stroke-opacity="1" />
            <path
                d="m416.045 352.334h34.441c3.867 0 7.002-3.135 7.002-7.002s-3.135-7.002-7.002-7.002h-34.441c-3.867 0-7.002 3.135-7.002 7.002s3.135 7.002 7.002 7.002z"
                fill="#59a4ff" fill-opacity="1" data-original-color="#59a4ffff" stroke="none"
                stroke-opacity="1" />
            <path
                d="m463.667 314.434h-47.622c-3.867 0-7.002 3.135-7.002 7.002s3.135 7.002 7.002 7.002h47.622c3.867 0 7.002-3.135 7.002-7.002s-3.135-7.002-7.002-7.002z"
                fill="#59a4ff" fill-opacity="1" data-original-color="#59a4ffff" stroke="none"
                stroke-opacity="1" />
            <path
                d="m386.31 428.671h-21.657c-7.394 0-13.408 6.015-13.408 13.408v21.685c0 7.394 6.015 13.408 13.408 13.408h21.657c7.394 0 13.408-6.015 13.408-13.408v-21.685c0-7.394-6.015-13.408-13.408-13.408zm-.596 34.497h-20.466v-20.493h20.466z"
                fill="#59a4ff" fill-opacity="1" data-original-color="#59a4ffff" stroke="none"
                stroke-opacity="1" />
            <path
                d="m258.666 432.327h-23.414c-3.867 0-7.002 3.135-7.002 7.002s3.135 7.002 7.002 7.002h23.414c3.867 0 7.002-3.135 7.002-7.002s-3.135-7.002-7.002-7.002z"
                fill="#59a4ff" fill-opacity="1" data-original-color="#59a4ffff" stroke="none"
                stroke-opacity="1" />
            <path
                d="m386.31 368.916h-21.657c-7.394 0-13.408 6.015-13.408 13.408v21.657c0 7.409 6.015 13.437 13.408 13.437h21.657c7.394 0 13.408-6.027 13.408-13.437v-21.657c0-7.394-6.015-13.408-13.408-13.408zm-.596 34.498h-20.466v-20.494h20.466z"
                fill="#59a4ff" fill-opacity="1" data-original-color="#59a4ffff" stroke="none"
                stroke-opacity="1" />
            <path
                d="m386.31 309.162h-21.657c-7.394 0-13.408 6.015-13.408 13.408v21.656c0 7.394 6.015 13.408 13.408 13.408h21.657c7.394 0 13.408-6.015 13.408-13.408v-21.656c0-7.394-6.015-13.408-13.408-13.408zm-.596 34.469h-20.466v-20.465h20.466z"
                fill="#59a4ff" fill-opacity="1" data-original-color="#59a4ffff" stroke="none"
                stroke-opacity="1" />
            <path
                d="m209.853 339.124h-22.535c-3.867 0-7.002 3.135-7.002 7.002s3.135 7.002 7.002 7.002h22.535c3.867 0 7.002-3.135 7.002-7.002s-3.135-7.002-7.002-7.002z"
                fill="#59a4ff" fill-opacity="1" data-original-color="#59a4ffff" stroke="none"
                stroke-opacity="1" />
            <path
                d="m186.099 191.78h102.869c13.099 0 23.755-10.644 23.755-23.727s-10.656-23.755-23.755-23.755h-102.869c-13.099 0-23.755 10.656-23.755 23.755s10.656 23.727 23.755 23.727zm0-33.478h102.869c5.377 0 9.751 4.374 9.751 9.751s-4.374 9.723-9.751 9.723h-102.869c-5.377 0-9.751-4.361-9.751-9.723s4.374-9.751 9.751-9.751z"
                fill="#59a4ff" fill-opacity="1" data-original-color="#59a4ffff" stroke="none"
                stroke-opacity="1" />
            <path
                d="m161.919 432.327h-23.386c-3.867 0-7.002 3.135-7.002 7.002s3.135 7.002 7.002 7.002h23.386c3.867 0 7.002-3.135 7.002-7.002s-3.135-7.002-7.002-7.002z"
                fill="#59a4ff" fill-opacity="1" data-original-color="#59a4ffff" stroke="none"
                stroke-opacity="1" />
        </g>
    </g>
</svg>