<svg id="Layer_1" enable-background="new 0 0 512 512" viewBox="0 0 512 512"
    xmlns="http://www.w3.org/2000/svg" width="300" height="300" version="1.1"
    xmlns:xlink="http://www.w3.org/1999/xlink" xmlns:svgjs="http://svgjs.dev/svgjs">
    <g width="100%" height="100%" transform="matrix(1,0,0,1,0,0)">
        <g clip-rule="evenodd" fill-rule="evenodd">
            <path
                d="m111.548 102.61c.467 1.742 2.056 2.966 3.86 2.966.346 0 .697-.047 1.031-.137l47.883-12.831c1.023-.274 1.898-.943 2.427-1.861.528-.916.676-2.012.402-3.034l-11.211-41.806c-.568-2.118-2.766-3.398-4.887-2.83l-47.883 12.83c-1.026.275-1.897.941-2.427 1.861-.528.916-.676 2.013-.403 3.034zm5.653 16.577c.531-.919 1.404-1.59 2.429-1.864l59.09-15.834c2.127-.57 4.331.702 4.901 2.829l13.824 51.601c.274 1.022.13 2.109-.401 3.025-.532.917-1.397 1.596-2.423 1.871l-59.1 15.834c-.337.09-.687.141-1.036.141-1.807 0-3.388-1.228-3.855-2.971l-13.83-51.595c-.274-1.025-.129-2.119.401-3.037zm-19.784 86.424c0-5.99 2.897-11.548 7.76-15.015l2.239-1.596-26.317-101.691h-23.774c-2.21 0-3.997-1.788-3.997-3.997 0-2.211 1.784-4.002 3.997-4.002h26.872c1.825 0 3.418 1.232 3.875 2.999l27.092 104.683 2.742.303c5.162.57 9.825 3.319 12.871 7.518l1.616 2.227 69.82-18.706c.824-.221 1.692-.177 2.487.134l10.609 4.152c2.057.805 3.075 3.124 2.27 5.182-.805 2.059-3.13 3.07-5.187 2.265l-9.38-3.67-68.546 18.366-.279 2.745c-.953 9.374-8.914 16.545-18.34 16.545-10.167 0-18.43-8.28-18.43-18.442zm266.209-159.614 38.208 38.208h-38.208zm111.072 277.145c9.349 0 16.944 7.578 16.944 16.93v20.093h-254.208v-20.093c0-9.339 7.591-16.93 16.93-16.93zm-162.821 116.197h-14.373v-34.476h14.373zm-46.662-22.381v-7.012c0-2.773 2.297-5.083 5.082-5.083h19.208v12.095zm24.29 7.999v14.382h-24.29v-14.382zm54.661 22.381v7.012c0 2.782-2.3 5.082-5.092 5.082h-68.777c-2.786 0-5.082-2.309-5.082-5.082v-7.012zm-24.29-7.999v-14.382h24.29v14.382zm0-22.381v-12.095h19.198c2.792 0 5.092 2.301 5.092 5.083v7.012zm-185.909-169.852c-62.648 0-113.614-50.96-113.614-113.609s50.966-113.609 113.614-113.609c62.649 0 113.609 50.96 113.609 113.609 0 62.648-50.96 113.609-113.609 113.609z"
                fill="#9bc9ff" fill-opacity="0.35" data-original-color="#9bc9ffff"
                stroke="none" stroke-opacity="1" />
            <path
                d="m222.367 44.343h129.26v39.684c0 6.717 5.46 12.182 12.177 12.182h39.688v214.935h-149.128c-15.1 0-27.531 11.631-28.806 26.401h-72.331c-4.41 0-8.002 3.582-8.002 8.002s3.591 8.002 8.002 8.002h72.208v35.735h-73.507c-4.425 0-8.002 3.582-8.002 7.997 0 4.42 3.577 8.002 8.002 8.002h73.507v37.961h-125.701c-.188 0-.358-.174-.358-.362v-188.621c10.991 3.153 22.598 4.843 34.591 4.843 16.516 0 32.298-3.21 46.758-9.028h170.22c4.42 0 8.002-3.582 8.002-8.002 0-4.415-3.582-7.997-8.002-7.997h-141.818c12.958-9.706 23.977-21.845 32.378-35.74h108.781c4.419 0 7.997-3.577 7.997-7.997s-3.577-8.002-7.997-8.002h-100.591c4.73-11.184 7.889-23.186 9.202-35.735h90.739c4.42 0 7.997-3.582 7.997-8.002s-3.577-8.002-7.997-8.002h-90.099c-.25-11.184-1.982-22.009-4.985-32.299h37.914c4.42 0 7.997-3.582 7.997-7.997 0-4.42-3.577-8.002-7.997-8.002h-43.802c-6.392-14.249-15.358-27.099-26.297-37.958zm116.707 348.521h-68.777c-9.414 0-17.081 7.663-17.081 17.081v44.405c0 9.418 7.667 17.081 17.081 17.081h68.777c9.423 0 17.091-7.663 17.091-17.081v-44.405c0-9.418-7.668-17.081-17.091-17.081zm-68.777 15.999c-.569 0-1.083.509-1.083 1.083v3.012h16.29v-4.095zm-1.082 42.475h70.951v3.012c0 .574-.508 1.082-1.092 1.082h-68.777c-.569 0-1.083-.508-1.083-1.082v-3.012zm32.289-15.999h6.373v-26.476h-6.373zm22.372 0h16.29v-6.382h-16.29zm-54.661-6.382v6.382h16.29v-6.382zm54.661-15.999h16.29v-3.012c0-.574-.508-1.083-1.092-1.083h-15.198zm67.068-5.681c-4.42 0-7.997 3.577-7.997 7.997s3.577 8.002 7.997 8.002h78.294c4.424 0 8.002-3.582 8.002-8.002s-3.577-7.997-8.002-7.997zm54.477 30.618h-54.477c-4.42 0-7.997 3.582-7.997 8.002 0 4.415 3.577 7.997 7.997 7.997h54.477c4.425 0 8.002-3.582 8.002-7.997 0-4.42-3.577-8.002-8.002-8.002zm-267.736-340.27-59.09 15.834c-2.048.551-3.799 1.888-4.858 3.728-1.064 1.836-1.351 4.02-.8 6.072l13.829 51.597c.951 3.577 4.189 5.935 7.719 5.935.683 0 1.379-.094 2.071-.277l59.1-15.834c2.047-.551 3.789-1.892 4.848-3.728 1.073-1.84 1.351-4.02.805-6.067l-13.824-51.601c-1.149-4.27-5.531-6.798-9.8-5.659zm-17.679 21.304 1.619 6.034c1.139 4.269-1.389 8.656-5.658 9.8-.692.183-1.393.273-2.071.273-3.53 0-6.768-2.358-7.729-5.931l-1.61-6.034-14.102 3.775 9.687 36.144 43.642-11.692-9.691-36.144zm-38.941-27.15 32.421-8.689-7.06-26.349-8.482 2.273.923 3.422c1.139 4.269-1.394 8.656-5.662 9.8-.701.184-1.389.273-2.08.273-3.53 0-6.759-2.358-7.719-5.931l-.918-3.427-8.482 2.278zm-3.591 17.524 47.883-12.831c2.048-.546 3.799-1.887 4.858-3.728 1.059-1.835 1.351-4.02.8-6.067l-11.212-41.806c-1.139-4.264-5.531-6.797-9.786-5.658l-47.883 12.831c-2.052.551-3.798 1.888-4.857 3.728-1.059 1.835-1.351 4.02-.8 6.067l11.207 41.806c.951 3.573 4.194 5.931 7.724 5.931.678 0 1.379-.089 2.066-.273zm.871 74.016-26.401-102.012c-.918-3.53-4.1-5.997-7.748-5.997h-26.871c-4.419 0-7.997 3.582-7.997 8.002 0 4.415 3.577 7.997 7.997 7.997h20.678l24.852 96.03c-5.71 4.071-9.437 10.741-9.437 18.272 0 12.374 10.059 22.442 22.428 22.442 11.598 0 21.172-8.844 22.32-20.141l64.611-17.312 8.157 3.191c4.123 1.61 8.764-.419 10.369-4.533 1.615-4.114-.419-8.755-4.537-10.364l-10.609-4.152c-1.591-.621-3.332-.72-4.98-.273l-67.162 17.994c-3.62-4.988-9.24-8.434-15.67-9.144zm-2.5 15.852c-3.549 0-6.43 2.89-6.43 6.439 0 3.553 2.881 6.439 6.43 6.439s6.439-2.885 6.439-6.439c.001-3.548-2.89-6.439-6.439-6.439zm235.749 86.64h-199.021c-4.42 0-7.997 3.582-7.997 8.002 0 4.415 3.577 7.997 7.997 7.997h199.021c4.42 0 8.002-3.582 8.002-7.997 0-4.42-3.582-8.002-8.002-8.002zm67.902 25.332v-219.472c0-4.434-1.662-8.435-4.801-11.57l-46.96-46.965c-3.14-3.135-7.14-4.792-11.57-4.792h-153.572c-17.758-11.634-38.63-18.892-61.072-20.23h-14.985c-65.815 3.859-118.181 58.616-118.181 125.382 0 51.267 30.882 95.456 75.018 114.956v194.428c0 9.023 7.343 16.366 16.361 16.366h125.702v15.707c0 15.956 12.982 28.933 28.929 28.933h220.334c15.957 0 28.947-12.977 28.947-28.933v-134.88c0-15.952-12.991-28.929-28.947-28.929h-55.203zm-165.132 15.999c-7.131 0-12.93 5.799-12.93 12.93v16.093h246.208v-16.093c0-7.131-5.789-12.93-12.944-12.93zm-12.93 45.026v102.784c0 7.131 5.799 12.935 12.93 12.935h220.334c7.155 0 12.944-5.804 12.944-12.935v-102.784zm126.192-291.963h24.551l-24.551-24.551zm-233.659-56.318c-60.441 0-109.614 49.168-109.614 109.609s49.173 109.609 109.614 109.609 109.609-49.168 109.609-109.609-49.168-109.609-109.609-109.609z"
                fill="#57a4ff" fill-opacity="1" data-original-color="#57a4ffff" stroke="none"
                stroke-opacity="1" />
        </g>
    </g>
</svg>