<svg height="300" viewBox="0 0 512 512" width="300" xmlns="http://www.w3.org/2000/svg" version="1.1"
    xmlns:xlink="http://www.w3.org/1999/xlink" xmlns:svgjs="http://svgjs.dev/svgjs">
    <g width="100%" height="100%" transform="matrix(1,0,0,1,0,0)">
        <g id="_x31_6_Package">
            <g id="Package-Flat">
                <g fill="#c8daff">
                    <path d="m31 103.5h385v-55c0-19.33-15.67-35-35-35h-315c-19.33 0-35 15.67-35 35z"
                        fill="#c8daff" fill-opacity="0.15"
                        data-original-color="#c8daffff" stroke="none" stroke-opacity="1" />
                    <path d="m31 83.5h385v240c0 19.33-15.67 35-35 35h-315c-19.33 0-35-15.67-35-35z"
                        fill="#c8daff" fill-opacity="0.15"
                        data-original-color="#c8daffff" stroke="none" stroke-opacity="1" />
                    <path
                        d="m171 13.5v85c0 9.665 7.835 17.5 17.5 17.5 6.318 0 11.853-3.348 14.93-8.366 1.186-1.934 3.954-1.934 5.14 0 3.077 5.018 8.612 8.366 14.93 8.366 6.318 0 11.853-3.348 14.93-8.366 1.186-1.934 3.954-1.934 5.14 0 3.077 5.018 8.612 8.366 14.93 8.366 9.665 0 17.5-7.835 17.5-17.5v-85z"
                        fill="#c8daff" fill-opacity="0.15"
                        data-original-color="#c8daffff" stroke="none" stroke-opacity="1" />
                    <path d="m171 13.5h105v70h-105z" fill="#c8daff"
                        fill-opacity="0.15" data-original-color="#c8daffff"
                        stroke="none" stroke-opacity="1" />
                    <path
                        d="m98.5 243.5h385v-55c0-19.33-15.67-35-35-35h-315c-19.33 0-35 15.67-35 35z"
                        fill="#c8daff" fill-opacity="0.15"
                        data-original-color="#c8daffff" stroke="none" stroke-opacity="1" />
                </g>
                <path d="m98.5 243.5h285v-90h-250c-19.33 0-35 15.67-35 35z" fill="#ffffff"
                    fill-opacity="0" data-original-color="#ffffffff" stroke="none"
                    stroke-opacity="1" />
                <path d="m98.5 223.5h385v240c0 19.33-15.67 35-35 35h-315c-19.33 0-35-15.67-35-35z"
                    fill="#c8daff" fill-opacity="0.15" data-original-color="#c8daffff"
                    stroke="none" stroke-opacity="1" />
                <path d="m98.5 223.5h285v210h-285z" fill="#ffffff" fill-opacity="0"
                    data-original-color="#ffffffff" stroke="none" stroke-opacity="1" />
                <path
                    d="m238.5 153.5v85c0 9.665 7.835 17.5 17.5 17.5 6.318 0 11.853-3.348 14.93-8.366 1.186-1.934 3.954-1.934 5.14 0 3.077 5.018 8.612 8.366 14.93 8.366 6.318 0 11.853-3.348 14.93-8.366 1.186-1.934 3.954-1.934 5.14 0 3.077 5.018 8.612 8.366 14.93 8.366 9.665 0 17.5-7.835 17.5-17.5v-85z"
                    fill="#c8daff" fill-opacity="0.15" data-original-color="#c8daffff"
                    stroke="none" stroke-opacity="1" />
                <path
                    d="m393.5 463.5h-205c-9.665 0-17.5-7.835-17.5-17.5v-140c0-9.665 7.835-17.5 17.5-17.5h205c9.665 0 17.5 7.835 17.5 17.5v140c0 9.665-7.835 17.5-17.5 17.5z"
                    fill="#c8daff" fill-opacity="0.15" data-original-color="#c8daffff"
                    stroke="none" stroke-opacity="1" />
                <path
                    d="m313.5 433.5h-142.5v-127.5c0-9.665 7.835-17.5 17.5-17.5h195v75c0 38.66-31.34 70-70 70z"
                    fill="#ffffff" fill-opacity="0" data-original-color="#ffffffff" stroke="none"
                    stroke-opacity="1" />
                <path
                    d="m331.488 351.393-9.522-1.384c-2.886-.419-5.555-1.605-7.769-3.373l-61.303 54.537-1.435 8.364c-2.268 13.225 11.613 23.311 23.49 17.067l8.517-4.478c4.716-2.48 10.351-2.48 15.067 0l8.517 4.478c11.877 6.244 25.758-3.841 23.49-17.067l-1.627-9.484c-.901-5.252.84-10.611 4.656-14.33l6.89-6.716c9.61-9.366 4.308-25.684-8.971-27.614z"
                    fill="#c8daff" fill-opacity="0.15" data-original-color="#c8daffff"
                    stroke="none" stroke-opacity="1" />
                <path
                    d="m314.273 349.436c0-.939-.027-1.872-.076-2.8-1.832-1.462-3.353-3.32-4.421-5.483l-4.258-8.629c-5.939-12.033-23.097-12.033-29.035 0l-4.258 8.629c-2.358 4.778-6.917 8.09-12.19 8.856l-9.522 1.384c-13.279 1.93-18.581 18.248-8.972 27.614l6.89 6.716c3.816 3.719 5.557 9.078 4.656 14.33l-.192 1.12c2.888.492 5.851.763 8.879.763 28.994 0 52.499-23.505 52.499-52.5z"
                    fill="#ffffff" fill-opacity="0" data-original-color="#ffffffff" stroke="none"
                    stroke-opacity="1" />
                <path d="m238.5 153.5h105v70h-105z" fill="#ffffff" fill-opacity="0"
                    data-original-color="#ffffffff" stroke="none" stroke-opacity="1" />
            </g>
            <g id="Package-Outline_expanded" fill="#548cfe">
                <path
                    d="m448.5 146h-315c-23.435 0-42.5 19.065-42.5 42.5v162.5h-25c-15.164 0-27.5-12.336-27.5-27.5v-232.5h125v7.5c0 13.785 11.215 25 25 25 6.807 0 12.987-2.735 17.5-7.163 4.513 4.428 10.693 7.163 17.5 7.163s12.987-2.735 17.5-7.163c4.513 4.428 10.693 7.163 17.5 7.163 13.785 0 25-11.215 25-25v-7.5h125v27.5c0 4.142 3.358 7.5 7.5 7.5s7.5-3.358 7.5-7.5v-70c0-23.435-19.065-42.5-42.5-42.5h-315c-23.435 0-42.5 19.065-42.5 42.5v275c0 23.435 19.065 42.5 42.5 42.5h25v97.5c0 23.435 19.065 42.5 42.5 42.5h315c23.435 0 42.5-19.065 42.5-42.5v-275c0-23.435-19.065-42.5-42.5-42.5zm-165-125h97.5c15.164 0 27.5 12.336 27.5 27.5v27.5h-125zm-105 0h90v77.5c0 5.514-4.486 10-10 10s-10-4.486-10-10c0-4.142-3.358-7.5-7.5-7.5s-7.5 3.358-7.5 7.5c0 5.514-4.486 10-10 10s-10-4.486-10-10c0-4.142-3.358-7.5-7.5-7.5s-7.5 3.358-7.5 7.5c0 5.514-4.486 10-10 10s-10-4.486-10-10zm-140 27.5c0-15.164 12.336-27.5 27.5-27.5h97.5v55h-125zm207.5 112.5h90v77.5c0 5.514-4.486 10-10 10s-10-4.486-10-10c0-4.142-3.358-7.5-7.5-7.5s-7.5 3.358-7.5 7.5c0 5.514-4.486 10-10 10s-10-4.486-10-10c0-4.142-3.358-7.5-7.5-7.5s-7.5 3.358-7.5 7.5c0 5.514-4.486 10-10 10s-10-4.486-10-10zm230 302.5c0 15.164-12.336 27.5-27.5 27.5h-315c-15.164 0-27.5-12.336-27.5-27.5v-232.5h47.5c4.142 0 7.5-3.358 7.5-7.5s-3.358-7.5-7.5-7.5h-47.5v-27.5c0-15.164 12.336-27.5 27.5-27.5h97.5v55h-42.5c-4.142 0-7.5 3.358-7.5 7.5s3.358 7.5 7.5 7.5h42.5v7.5c0 13.785 11.215 25 25 25 6.807 0 12.987-2.735 17.5-7.163 4.513 4.428 10.693 7.163 17.5 7.163s12.987-2.735 17.5-7.163c4.513 4.428 10.693 7.163 17.5 7.163 13.785 0 25-11.215 25-25v-7.5h125zm0-247.5h-125v-55h97.5c15.164 0 27.5 12.336 27.5 27.5z"
                    fill="#548cfe" fill-opacity="1" data-original-color="#548cfeff" stroke="none"
                    stroke-opacity="1" />
                <path
                    d="m393.5 471h-17.5c-4.142 0-7.5-3.358-7.5-7.5s3.358-7.5 7.5-7.5h17.5c5.514 0 10-4.486 10-10v-140c0-5.514-4.486-10-10-10h-205c-5.514 0-10 4.486-10 10v140c0 5.514 4.486 10 10 10h152.5c4.142 0 7.5 3.358 7.5 7.5s-3.358 7.5-7.5 7.5h-152.5c-13.785 0-25-11.215-25-25v-140c0-13.785 11.215-25 25-25h205c13.785 0 25 11.215 25 25v140c0 13.785-11.215 25-25 25z"
                    fill="#548cfe" fill-opacity="1" data-original-color="#548cfeff" stroke="none"
                    stroke-opacity="1" />
                <path
                    d="m267.393 435.99c-4.891 0-9.749-1.533-13.901-4.55-7.349-5.339-10.96-14.217-9.425-23.17l1.627-9.484c.483-2.819-.451-5.694-2.499-7.69l-6.891-6.717c-6.504-6.34-8.801-15.646-5.995-24.284 2.807-8.639 10.135-14.817 19.124-16.123l9.523-1.383c2.831-.412 5.276-2.188 6.542-4.753l4.259-8.629c4.02-8.147 12.16-13.207 21.243-13.207s17.223 5.06 21.243 13.205l4.259 8.629c1.266 2.565 3.711 4.342 6.543 4.754l9.521 1.383c8.989 1.306 16.317 7.484 19.124 16.123s.51 17.944-5.995 24.284l-6.89 6.716c-2.049 1.997-2.983 4.872-2.5 7.691l1.627 9.483c1.535 8.953-2.076 17.832-9.425 23.17-7.349 5.34-16.908 6.029-24.948 1.803l-8.517-4.478c-2.533-1.332-5.556-1.332-8.087 0 0 0 0 0-.001 0l-8.517 4.478c-3.495 1.841-7.279 2.749-11.044 2.749zm16.073-13.863h.01zm7.534-91.127c-3.382 0-6.295 1.811-7.792 4.844l-4.259 8.629c-3.451 6.992-10.118 11.837-17.836 12.959l-9.523 1.383c-3.347.487-5.969 2.697-7.014 5.915-1.045 3.217-.223 6.547 2.199 8.908l6.891 6.716c5.584 5.442 8.131 13.281 6.813 20.968l-1.627 9.484c-.572 3.333.721 6.511 3.457 8.499 2.737 1.989 6.159 2.235 9.151.661l8.518-4.478c6.901-3.629 15.145-3.629 22.048 0l8.516 4.477c2.994 1.575 6.415 1.327 9.151-.661s4.029-5.166 3.457-8.5l-1.627-9.483c-1.318-7.687 1.229-15.526 6.813-20.969l6.89-6.716c2.422-2.361 3.245-5.691 2.199-8.908-1.045-3.217-3.667-5.428-7.015-5.915l-9.522-1.383c-7.719-1.122-14.386-5.967-17.837-12.959l-4.259-8.628c-1.497-3.032-4.41-4.843-7.792-4.843z"
                    fill="#548cfe" fill-opacity="1" data-original-color="#548cfeff" stroke="none"
                    stroke-opacity="1" />
            </g>
        </g>
    </g>
</svg>