<svg id="Layer_1" viewBox="0 0 512 512" xmlns="http://www.w3.org/2000/svg" data-name="Layer 1"
    width="300" height="300" version="1.1" xmlns:xlink="http://www.w3.org/1999/xlink"
    xmlns:svgjs="http://svgjs.dev/svgjs">
    <g width="100%" height="100%" transform="matrix(1,0,0,1,0,0)">
        <g fill="#9bc8ff">
            <path
                d="m174.503 267.496h-35.91v55.209c0 2.994-1.672 5.738-4.333 7.11-1.155.596-2.413.89-3.666.89-1.634 0-3.26-.5-4.641-1.483l-26.146-18.612-26.146 18.612c-2.438 1.737-5.644 1.966-8.306.593-2.661-1.372-4.333-4.116-4.333-7.11v-55.209h-35.909v149.39h149.39z"
                fill="#9bc8ff" fill-opacity="0.35294117647058826" data-original-color="#9bc8ffff"
                stroke="none" stroke-opacity="1" />
            <path
                d="m257.199 251.496v-16.734c-17.196-5.455-33.369-14.983-46.982-28.597-16.544-16.544-27.056-36.866-31.55-58.214l-22.309 15.881c-1.38.983-3.006 1.483-4.64 1.483-1.253 0-2.51-.294-3.666-.89-2.661-1.373-4.333-4.116-4.333-7.11v-55.208h-35.91v149.389z"
                fill="#9bc8ff" fill-opacity="0.35294117647058826" data-original-color="#9bc8ffff"
                stroke="none" stroke-opacity="1" />
            <path
                d="m239.053 329.222c-2.439 1.737-5.644 1.966-8.306.593-2.661-1.372-4.333-4.116-4.333-7.11v-55.209h-35.91v149.39h72.462l-3.272-5.236c-4.597-7.356-2.909-16.929 3.926-22.269l16.178-12.639c.253-.198.291-.263.336-.582l2.857-20.33c1.207-8.588 8.656-14.829 17.321-14.535l20.518.717c.324.01.392-.014.631-.23l15.256-13.737c.988-.89 2.059-1.626 3.178-2.243v-58.306h-35.91v55.209c0 2.994-1.672 5.738-4.333 7.11-1.155.596-2.413.89-3.666.89-1.634 0-3.26-.5-4.641-1.483l-26.146-18.612z"
                fill="#9bc8ff" fill-opacity="0.35294117647058826" data-original-color="#9bc8ffff"
                stroke="none" stroke-opacity="1" />
            <path
                d="m391.433 257.156c-.025.025-.053.047-.079.072l-.728.728c-.224.221-.46.455-.695.688.363.395.814.866 1.373 1.425l46.844 46.844c3.438 3.438 8.563 4.971 14.424 4.312 6.536-.732 13.014-4.015 18.241-9.243s8.51-11.706 9.243-18.241c.657-5.863-.874-10.986-4.312-14.424l-46.844-46.844c-.554-.554-1.019-1.003-1.409-1.366-.331.324-.64.633-.869.862l-35.118 35.109c-.025.026-.046.054-.071.079z"
                fill="#9bc8ff" fill-opacity="0.35294117647058826" data-original-color="#9bc8ffff"
                stroke="none" stroke-opacity="1" />
            <path
                d="m374.996 206.165c-3.944 3.944-8.107 7.538-12.443 10.797l23.224 23.224 23.241-23.241-23.224-23.224c-3.259 4.336-6.853 8.5-10.797 12.444z"
                fill="#9bc8ff" fill-opacity="0.35294117647058826" data-original-color="#9bc8ffff"
                stroke="none" stroke-opacity="1" />
            <path
                d="m292.606 224.245c25.744.002 51.478-9.795 71.076-29.393 39.191-39.191 39.191-102.96 0-142.152-19.596-19.596-45.336-29.394-71.076-29.394s-51.48 9.798-71.076 29.394c-39.191 39.191-39.191 102.96 0 142.152 19.593 19.593 45.339 29.391 71.076 29.393zm-53.499-153.968c29.499-29.499 77.5-29.5 106.999 0 29.5 29.499 29.5 77.499 0 106.998-14.75 14.75-34.125 22.125-53.5 22.125s-38.749-7.375-53.499-22.125c-29.5-29.5-29.5-77.499 0-106.998z"
                fill="#9bc8ff" fill-opacity="0.35294117647058826" data-original-color="#9bc8ffff"
                stroke="none" stroke-opacity="1" />
            <path
                d="m320.271 358.003-20.518-.717c-.013 0-.025 0-.037 0-.464 0-.816.306-.882.772l-2.857 20.33c-.622 4.422-2.81 8.213-6.329 10.963l-16.179 12.64c-.375.292-.46.778-.208 1.182l10.879 17.409c.037.06.066.122.102.182.096.159.188.32.273.486 2.055 3.626 2.698 7.685 1.823 11.8l-4.269 20.082c-.099.465.148.892.6 1.039l19.525 6.344c4.247 1.38 7.6 4.194 9.697 8.137l9.638 18.127c.224.42.685.59 1.127.411l19.035-7.691c4.14-1.673 8.518-1.673 12.66 0l19.035 7.691c.439.178.904.009 1.127-.41l9.638-18.127c2.096-3.943 5.45-6.757 9.697-8.137l19.525-6.344c.452-.147.699-.575.6-1.04l-4.269-20.081c-.929-4.369-.168-8.68 2.198-12.467l10.879-17.41c.252-.403.166-.889-.208-1.181l-16.178-12.639c-3.52-2.75-5.708-6.541-6.33-10.963l-2.857-20.331c-.066-.47-.427-.792-.92-.771l-20.517.717c-4.462.153-8.576-1.342-11.896-4.33l-15.257-13.738c-.353-.317-.845-.317-1.2 0l-15.256 13.737c-3.319 2.988-7.429 4.482-11.896 4.331zm27.752.354c30.393 0 55.12 24.727 55.12 55.12s-24.727 55.12-55.12 55.12-55.12-24.727-55.12-55.12 24.727-55.12 55.12-55.12z"
                fill="#9bc8ff" fill-opacity="0.35294117647058826" data-original-color="#9bc8ffff"
                stroke="none" stroke-opacity="1" />
        </g>
        <path
            d="m322.106 419.984 13.566 14.047c1.509 1.562 3.586 2.442 5.754 2.442.053 0 .105 0 .158-.001 2.225-.044 4.331-1.013 5.812-2.673l26.756-29.993c2.941-3.297 2.653-8.354-.644-11.295-3.298-2.941-8.354-2.653-11.295.644l-21.019 23.562-7.58-7.848c-3.07-3.178-8.134-3.266-11.312-.197s-3.266 8.134-.197 11.312z"
            fill="#59a4ff" fill-opacity="1" data-original-color="#59a4ffff" stroke="none"
            stroke-opacity="1" />
        <path
            d="m17.875 432.886h252.14l-3.596 16.916c-1.804 8.483 3.057 16.902 11.306 19.583l19.525 6.344c.306.099.364.148.515.432l9.638 18.126c3.019 5.679 8.822 8.975 14.899 8.975 2.118 0 4.271-.401 6.35-1.241l19.035-7.691c.298-.121.374-.121.672 0l19.034 7.691c8.043 3.25 17.177-.076 21.249-7.734l9.639-18.127c.151-.284.208-.333.514-.432l19.525-6.344c8.248-2.681 13.108-11.099 11.306-19.583l-4.269-20.081c-.067-.315-.054-.39.116-.662l10.879-17.41c4.596-7.355 2.908-16.929-3.926-22.269l-16.177-12.639c-.254-.199-.292-.264-.337-.582l-2.856-20.33c-1.207-8.588-8.679-14.826-17.322-14.536l-20.517.717c-.324.009-.393-.015-.632-.23l-15.256-13.737c-1.063-.958-2.222-1.741-3.434-2.383v-65.404c0-4.832-3.931-8.762-8.763-8.762h-73.933v-12.874c6.42 1.076 12.914 1.615 19.407 1.615 19.387 0 38.771-4.8 56.205-14.39l25.974 25.974c-1.196 1.852-2.002 3.953-2.01 6.52-.017 5.359 3.715 9.542 7.215 13.041l46.844 46.844c5.978 5.978 14.044 9.152 23.057 9.151 1.464 0 2.955-.083 4.464-.253 10.126-1.135 19.989-6.047 27.771-13.83s12.694-17.646 13.83-27.772c1.21-10.798-1.95-20.571-8.899-27.52l-46.844-46.844c-3.882-3.881-7.824-7.369-13.186-7.213-2.466.065-4.515.87-6.339 2.044l-26.01-26.01c24.349-44.263 17.791-101.12-19.682-138.594-45.43-45.43-119.349-45.431-164.779 0-13.014 13.014-22.293 28.369-27.851 44.72h-81.795c-4.832 0-8.762 3.931-8.762 8.762v156.632h-73.934c-4.832 0-8.762 3.931-8.762 8.762v163.866c0 4.832 3.931 8.762 8.762 8.762zm329.547-92.951c.354-.317.847-.317 1.2 0l15.257 13.738c3.319 2.988 7.433 4.482 11.896 4.33l20.517-.717c.493-.02.854.301.92.771l2.857 20.331c.622 4.422 2.81 8.212 6.33 10.963l16.178 12.639c.375.292.46.778.208 1.181l-10.879 17.41c-2.367 3.787-3.127 8.098-2.198 12.467l4.269 20.081c.099.465-.148.893-.6 1.04l-19.525 6.344c-4.248 1.38-7.601 4.194-9.697 8.137l-9.638 18.127c-.224.419-.688.588-1.127.41l-19.035-7.691c-4.142-1.673-8.52-1.673-12.66 0l-19.035 7.691c-.442.179-.904.009-1.127-.411l-9.638-18.127c-2.097-3.943-5.45-6.757-9.697-8.137l-19.525-6.344c-.452-.147-.699-.574-.6-1.039l4.269-20.082c.875-4.115.232-8.174-1.823-11.8-.085-.166-.177-.327-.273-.486-.036-.06-.065-.122-.102-.182l-10.879-17.409c-.252-.403-.167-.889.208-1.182l16.179-12.64c3.519-2.75 5.707-6.541 6.329-10.963l2.857-20.33c.066-.466.418-.772.882-.772h.037l20.518.717c4.467.152 8.577-1.342 11.896-4.331l15.256-13.737zm-51.438-9.23c1.252 0 2.51-.294 3.666-.89 2.661-1.372 4.333-4.116 4.333-7.11v-55.209h35.91v58.306c-1.118.617-2.19 1.353-3.178 2.243l-15.256 13.737c-.239.216-.308.24-.631.23l-20.518-.717c-8.665-.293-16.114 5.947-17.321 14.535l-2.857 20.33c-.045.319-.083.384-.336.582l-16.178 12.639c-6.835 5.339-8.523 14.913-3.926 22.269l3.272 5.236h-72.462v-149.39h35.91v55.209c0 2.994 1.672 5.738 4.333 7.11 2.662 1.373 5.867 1.144 8.306-.593l26.146-18.612 26.146 18.612c1.381.983 3.007 1.483 4.641 1.483zm-8.001-63.209v39.694l-18.146-12.917c-2.777-1.978-6.502-1.978-9.279 0l-18.146 12.917v-39.694h45.57zm138.638-45.527c.229-.229.538-.538.869-.862.39.363.855.812 1.409 1.366l46.844 46.844c3.438 3.438 4.969 8.561 4.312 14.424-.733 6.536-4.016 13.014-9.243 18.241s-11.706 8.51-18.241 9.243c-5.86.66-10.985-.873-14.424-4.312l-46.844-46.844c-.559-.559-1.009-1.03-1.373-1.425.234-.234.471-.468.695-.688l.728-.728c.026-.025.054-.046.079-.072.025-.025.046-.053.071-.079l35.118-35.109zm-17.604-5.023-23.241 23.241-23.224-23.224c4.336-3.259 8.499-6.853 12.443-10.797s7.538-8.107 10.797-12.444l23.224 23.224zm-187.487-164.246c19.596-19.596 45.336-29.394 71.076-29.394s51.48 9.798 71.076 29.394c39.191 39.191 39.191 102.96 0 142.152-19.598 19.598-45.333 29.396-71.076 29.393-25.737-.002-51.482-9.8-71.076-29.393-39.191-39.191-39.191-102.96 0-142.152zm-61.812 49.406h18.448c-1.727 9.197-2.345 18.562-1.852 27.88l-16.596 11.814zm-51.91 0h35.91v55.208c0 2.994 1.672 5.738 4.333 7.11 1.155.596 2.413.89 3.666.89 1.634 0 3.26-.5 4.64-1.483l22.309-15.881c4.495 21.348 15.007 41.671 31.55 58.214 13.613 13.613 29.786 23.142 46.982 28.597v16.734h-149.389v-149.389zm-30.786 165.39h45.571v39.694l-18.146-12.917c-2.777-1.978-6.502-1.978-9.279 0l-18.146 12.917zm-51.91 0h35.911v55.209c0 2.994 1.672 5.738 4.333 7.11 2.662 1.373 5.867 1.144 8.306-.593l26.146-18.612 26.146 18.612c1.381.983 3.007 1.483 4.641 1.483 1.252 0 2.51-.294 3.666-.89 2.661-1.372 4.333-4.116 4.333-7.11v-55.209h35.91v149.39h-149.391v-149.39z"
            fill="#59a4ff" fill-opacity="1" data-original-color="#59a4ffff" stroke="none"
            stroke-opacity="1" />
        <path
            d="m292.902 413.477c0 30.393 24.727 55.12 55.12 55.12s55.12-24.727 55.12-55.12-24.727-55.12-55.12-55.12-55.12 24.727-55.12 55.12zm55.12-39.12c21.571 0 39.12 17.549 39.12 39.12s-17.549 39.12-39.12 39.12-39.12-17.549-39.12-39.12 17.549-39.12 39.12-39.12z"
            fill="#59a4ff" fill-opacity="1" data-original-color="#59a4ffff" stroke="none"
            stroke-opacity="1" />
        <path
            d="m292.606 199.399c19.375 0 38.75-7.375 53.5-22.125 29.5-29.5 29.5-77.499 0-106.998-29.499-29.5-77.5-29.499-106.999 0-29.5 29.499-29.5 77.499 0 106.998 14.75 14.75 34.125 22.125 53.499 22.125zm-42.186-117.809c11.631-11.63 26.908-17.446 42.186-17.446s30.555 5.815 42.186 17.446c23.261 23.261 23.261 61.11 0 84.371-11.632 11.632-26.906 17.447-42.186 17.445-15.275 0-30.556-5.816-42.186-17.445-23.261-23.261-23.261-61.11 0-84.371z"
            fill="#59a4ff" fill-opacity="1" data-original-color="#59a4ffff" stroke="none"
            stroke-opacity="1" />
    </g>
</svg>