<svg xmlns="http://www.w3.org/2000/svg" version="1.1" xmlns:xlink="http://www.w3.org/1999/xlink" width="512" height="512" x="0" y="0" viewBox="0 0 496 496" style="enable-background:new 0 0 512 512" xml:space="preserve" class=""><g><path fill="#ffffff" d="M119.96 8h96v32h-96zm0 0" opacity="1" data-original="#ffffff" class=""></path><path fill="#d7e9ff" d="M327.723 400.238c2.96 30.64-19.832 55.762-50.641 55.762H58.922c-30.809 0-53.602-25.121-50.64-55.762l20.32-211.597C79.082 299.199 190.442 376 319.96 376c1.832 0 3.68 0 5.441-.078zm0 0" opacity="0.1803921568627451" data-original="#d7e9ff" class=""></path><path fill="#94c1ff" d="m298.441 95.762 26.961 280.168c-1.761.07-3.601.07-5.441.07-129.52 0-240.879-76.8-291.36-187.36v-.081l8.962-92.805C40.44 65.12 68.12 40 98.922 40h138.16c30.8 0 58.398 25.121 61.36 55.762zm0 0" opacity="0.25098039215686274" data-original="#94c1ff" class=""></path><path fill="#5c9eff" d="m266.441 95.762 26.848 279.062c8.809.719 17.68 1.176 26.672 1.176 1.832 0 3.68 0 5.441-.078l-26.96-280.168C295.48 65.12 267.881 40 237.081 40h-32c30.8 0 58.398 25.121 61.36 55.762zm0 0" opacity="0.23137254901960785" data-original="#5c9eff" class=""></path><path fill="#94c1ff" d="m327.723 400.238-2.32-24.316c-1.762.078-3.602.078-5.442.078-8.992 0-17.863-.457-26.672-1.176l.113 1.106 2.32 24.316c2.962 30.64-19.831 55.762-50.64 55.762h32c30.8-.008 53.602-25.13 50.64-55.77zm0 0" opacity="0.25098039215686274" data-original="#94c1ff" class=""></path><path fill="#ffffff" d="M79.96 456h176v32h-176zm0 0" opacity="1" data-original="#ffffff" class=""></path><path fill="#d7e9ff" d="M223.96 456h32v32h-32zM183.96 8h32v32h-32zm0 0" opacity="0.1803921568627451" data-original="#d7e9ff" class=""></path><g fill="#116fff"><path d="M300.508 124.969a7.872 7.872 0 0 1-2.434-.383c-29.953-9.555-50.07-37.121-50.07-68.586 0-4.68.453-9.367 1.351-13.93a7.97 7.97 0 0 1 9.399-6.3 8.003 8.003 0 0 1 6.305 9.398A55.797 55.797 0 0 0 264.004 56c0 24.48 15.644 45.91 38.926 53.352 4.207 1.343 6.535 5.84 5.183 10.046-1.07 3.41-4.222 5.57-7.605 5.57zm0 0" fill="#116fff" opacity="1" data-original="#116fff" class=""></path><path d="M303.723 158.617c-.45 0-.899-.043-1.352-.12-50.05-8.536-86.367-51.65-86.367-102.497 0-5.824.484-11.648 1.437-17.328.739-4.352 4.778-7.246 9.215-6.559a7.993 7.993 0 0 1 6.563 9.215A88.708 88.708 0 0 0 232.004 56c0 43.031 30.726 79.504 73.055 86.734 4.359.746 7.289 4.875 6.535 9.227a8.004 8.004 0 0 1-7.871 6.656zm0 0" fill="#116fff" opacity="1" data-original="#116fff" class=""></path><path d="M306.922 191.336c-.266 0-.535-.016-.817-.04C236.5 184.239 184.004 126.079 184.004 56c0-5.688.351-11.406 1.055-16.992.543-4.383 4.543-7.457 8.925-6.946a7.995 7.995 0 0 1 6.946 8.93A121.32 121.32 0 0 0 200.004 56c0 61.832 46.309 113.16 107.719 119.375 4.398.45 7.597 4.379 7.16 8.77a8.017 8.017 0 0 1-7.961 7.19zm0 0" fill="#116fff" opacity="1" data-original="#116fff" class=""></path><path d="M310.02 223.688c-.168 0-.329-.008-.504-.016C221.187 218.238 152.004 144.594 152.004 56c0-5.61.277-11.266.832-16.793.445-4.406 4.414-7.559 8.75-7.168 4.398.441 7.61 4.36 7.168 8.754a152.404 152.404 0 0 0-.75 15.207c0 80.16 62.59 146.793 142.504 151.703a8.008 8.008 0 0 1 7.496 8.48c-.266 4.243-3.793 7.505-7.984 7.505zm0 0" fill="#116fff" opacity="1" data-original="#116fff" class=""></path><path d="M313.105 255.863c-.101 0-.19 0-.289-.008C204.7 252.063 120.004 164.273 120.004 56c0-5.586.223-11.191.687-16.664.36-4.39 4.079-7.816 8.63-7.305 4.402.36 7.671 4.227 7.304 8.633A187.512 187.512 0 0 0 136.004 56c0 99.61 77.91 180.375 177.375 183.871 4.414.152 7.863 3.856 7.71 8.274a7.99 7.99 0 0 1-7.984 7.718zm0 0" fill="#116fff" opacity="1" data-original="#116fff" class=""></path><path d="M316.18 287.96h-.137C190.305 285.864 88.003 181.817 88.003 56c0-5.527.192-11.098.583-16.52.312-4.41 4.082-7.761 8.543-7.41 4.41.313 7.73 4.145 7.41 8.547A217.56 217.56 0 0 0 104.004 56c0 117.137 95.238 214.016 212.308 215.96a8.005 8.005 0 0 1 7.868 8.138c-.067 4.375-3.64 7.863-8 7.863zm0 0" fill="#116fff" opacity="1" data-original="#116fff" class=""></path><path d="M320.004 320h-.738C174.098 319.602 56.004 201.168 56.004 56c0-1.602.016-3.191.047-4.793.094-4.414 4.07-7.95 8.168-7.832a8.01 8.01 0 0 1 7.832 8.168c-.031 1.48-.047 2.96-.047 4.457 0 136.367 110.926 247.625 247.285 248 4.418.016 8.352 3.594 8.344 8.008-.008 4.418-3.215 7.992-7.63 7.992zm0 0" fill="#116fff" opacity="1" data-original="#116fff" class=""></path><path d="M320.004 352C176.28 352 53.73 249.496 28.594 108.266c-.778-4.344 2.129-8.504 6.48-9.274 4.336-.8 8.504 2.13 9.274 6.48C68.12 239.048 184.05 336 320.004 336l2.246-.008h.082c4.383 0 7.95 3.528 8 7.918.047 4.418-3.508 8.035-7.922 8.082zm0 0" fill="#116fff" opacity="1" data-original="#116fff" class=""></path><path d="M320.004 384C191.707 384 74.48 308.586 21.348 191.871c-1.832-4.016-.059-8.766 3.964-10.59 4.036-1.84 8.77-.043 10.594 3.965C86.45 296.266 197.953 368 320.004 368c1.758 0 3.512-.016 5.254-.047 4.68-.36 8.062 3.445 8.144 7.856.078 4.421-3.449 8.062-7.855 8.144-1.84.031-3.695.047-5.543.047zm0 0" fill="#116fff" opacity="1" data-original="#116fff" class=""></path><path d="M32.004 256c-3.41 0-6.832-.238-10.18-.719-4.375-.625-7.414-4.68-6.789-9.058.621-4.368 4.727-7.399 9.055-6.79 10.84 1.56 22-.128 31.887-4.816 4-1.883 8.77-.183 10.656 3.797 1.898 3.992.191 8.77-3.797 10.656-9.664 4.602-20.043 6.93-30.832 6.93zM32.004 288c-4.371 0-8.777-.273-13.09-.824-4.383-.551-7.496-4.551-6.937-8.938.546-4.383 4.511-7.468 8.937-6.933 18.824 2.382 38.344-1.489 54.77-10.89 3.816-2.169 8.718-.864 10.918 2.968 2.191 3.832.863 8.722-2.97 10.922C67.993 283.265 50.138 288 32.005 288zM32.004 320c-5.41 0-10.832-.313-16.121-.938-4.383-.511-7.52-4.496-7.008-8.878a7.966 7.966 0 0 1 8.879-7.008c4.672.543 9.457.824 14.25.824 23.644 0 46.512-6.855 66.133-19.832 3.68-2.45 8.64-1.441 11.09 2.258a7.994 7.994 0 0 1-2.258 11.086C84.723 312.222 58.8 320 32.004 320zM32.004 352c-6.418 0-12.844-.36-19.121-1.078-4.395-.496-7.535-4.465-7.04-8.852.505-4.382 4.262-7.644 8.848-7.039 5.68.64 11.496.969 17.313.969 33.215 0 64.766-10.504 91.238-30.398 3.528-2.633 8.551-1.938 11.2 1.59 2.648 3.527 1.937 8.542-1.59 11.199C103.586 340.383 68.715 352 32.004 352zm0 0" fill="#116fff" opacity="1" data-original="#116fff" class=""></path><path d="M32.004 384c-7.395 0-14.852-.414-22.18-1.215a8.006 8.006 0 0 1-7.078-8.832c.496-4.387 4.383-7.488 8.832-7.082A184.557 184.557 0 0 0 32.004 368c43.422 0 85.559-15.39 118.652-43.328 3.403-2.863 8.442-2.434 11.274.945 2.847 3.383 2.433 8.43-.946 11.27C125.004 367.273 79.195 384 32.004 384zm0 0" fill="#116fff" opacity="1" data-original="#116fff" class=""></path><path d="M32.004 416a235.68 235.68 0 0 1-24.824-1.313 8.002 8.002 0 0 1-7.114-8.8c.473-4.399 4.313-7.621 8.801-7.11A220.57 220.57 0 0 0 32.004 400c55.504 0 108.246-20.984 148.504-59.098a8.013 8.013 0 0 1 11.308.313 8.007 8.007 0 0 1-.308 11.312C148.266 393.465 91.618 416 32.004 416zm0 0" fill="#116fff" opacity="1" data-original="#116fff" class=""></path><path d="M32.004 448c-3.785 0-7.54-.078-11.281-.238-4.418-.188-7.832-3.922-7.649-8.336.184-4.418 3.903-7.906 8.336-7.649 3.504.145 7.047.223 10.594.223 69.094 0 133.215-27.672 180.566-77.922a7.987 7.987 0 0 1 11.305-.336c3.215 3.035 3.367 8.098.336 11.305C173.816 418.535 105.547 448 32.004 448zM126.96 464c-3.312 0-6.405-2.063-7.55-5.367-1.457-4.168.75-8.738 4.922-10.184 47.535-16.57 89.856-45.832 122.375-84.633 2.84-3.375 7.879-3.832 11.27-.992a8.001 8.001 0 0 1 .992 11.274c-34.375 41-79.11 71.933-129.375 89.46a8.114 8.114 0 0 1-2.633.442zM200.754 464a7.995 7.995 0 0 1-6.809-3.785c-2.328-3.75-1.175-8.68 2.578-11.016 33.614-20.879 62.63-47.605 86.239-79.43 2.625-3.546 7.648-4.28 11.183-1.656 3.543 2.63 4.29 7.64 1.657 11.184-24.809 33.445-55.305 61.535-90.649 83.496a7.91 7.91 0 0 1-4.2 1.207zM255.547 464a7.964 7.964 0 0 1-6.184-2.922c-2.808-3.406-2.312-8.453 1.102-11.254a345.11 345.11 0 0 0 68.504-75.945c2.441-3.68 7.41-4.695 11.097-2.246a8.008 8.008 0 0 1 2.247 11.094 361.14 361.14 0 0 1-71.688 79.464 8.017 8.017 0 0 1-5.078 1.809zm0 0" fill="#116fff" opacity="1" data-original="#116fff" class=""></path><path d="M277.105 464H58.898c-17.175 0-32.77-6.742-43.886-18.992C3.875 432.762-1.352 416.594.297 399.496L29.578 94.984C32.914 60.246 64.012 32 98.898 32h138.2c34.886 0 65.984 28.246 69.32 62.977l29.281 304.511c1.649 17.106-3.578 33.266-14.715 45.512-11.117 12.258-26.703 19-43.879 19zM98.898 48C72.028 48 48.066 69.762 45.5 96.504L16.219 401.016c-1.2 12.55 2.566 24.351 10.625 33.222C34.906 443.121 46.289 448 58.898 448h218.2c12.609 0 23.992-4.879 32.054-13.754 8.059-8.871 11.832-20.672 10.625-33.223L290.5 96.512C287.93 69.762 263.977 48 237.105 48zm0 0" fill="#116fff" opacity="1" data-original="#116fff" class=""></path><path d="M120.004 48a7.99 7.99 0 0 1-8-8V8c0-4.426 3.574-8 8-8 4.422 0 8 3.574 8 8v32c0 4.426-3.578 8-8 8zm0 0" fill="#116fff" opacity="1" data-original="#116fff" class=""></path><path d="M216.004 16h-96c-4.426 0-8-3.574-8-8s3.574-8 8-8h96c4.422 0 8 3.574 8 8s-3.578 8-8 8zm0 0" fill="#116fff" opacity="1" data-original="#116fff" class=""></path><path d="M216.004 48a7.99 7.99 0 0 1-8-8V8c0-4.426 3.574-8 8-8 4.422 0 8 3.574 8 8v32c0 4.426-3.578 8-8 8zm0 0" fill="#116fff" opacity="1" data-original="#116fff" class=""></path><path d="M237.105 48H98.898c-4.425 0-8-3.574-8-8s3.575-8 8-8h138.2c4.425 0 8 3.574 8 8s-3.575 8-7.993 8zM256.004 496a7.99 7.99 0 0 1-8-8v-32c0-4.426 3.574-8 8-8 4.422 0 8 3.574 8 8v32c0 4.426-3.578 8-8 8zm0 0" fill="#116fff" opacity="1" data-original="#116fff" class=""></path><path d="M256.004 496h-176c-4.426 0-8-3.574-8-8s3.574-8 8-8h176c4.422 0 8 3.574 8 8s-3.578 8-8 8zm0 0" fill="#116fff" opacity="1" data-original="#116fff" class=""></path><path d="M80.004 496a7.99 7.99 0 0 1-8-8v-32c0-4.426 3.574-8 8-8 4.422 0 8 3.574 8 8v32c0 4.426-3.578 8-8 8zm0 0" fill="#116fff" opacity="1" data-original="#116fff" class=""></path></g></g></svg>