<svg id="Flat_Color" viewBox="0 0 32 32" xmlns="http://www.w3.org/2000/svg" width="300" height="300" version="1.1" xmlns:xlink="http://www.w3.org/1999/xlink" xmlns:svgjs="http://svgjs.dev/svgjs"><g width="100%" height="100%" transform="matrix(1,0,0,1,0,0)"><path d="m29 8v19c0 1.1-.9 2-2 2h-15c-1.66 0-3-1.34-3-3v-21c0-1.1.9-2 2-2h13z" fill="#63913a" fill-opacity="1" data-original-color="#edebeaff" stroke="none" stroke-opacity="1"/><path d="m24 3v4c0 .55.45 1 1 1h4z" fill="#415e27" fill-opacity="1" data-original-color="#e1deddff" stroke="none" stroke-opacity="1"/><circle cx="12" cy="20" fill="#ffd04d" r="9" fill-opacity="1" data-original-color="#0b4f6cff" stroke="none" stroke-opacity="1"/><path d="m14.12 22.87c-.19 0-.38-.07-.53-.22l-2.12-2.12c-.14-.14-.22-.33-.22-.53v-5c0-.41.34-.75.75-.75s.75.34.75.75v4.69l1.9 1.9c.29.29.29.77 0 1.06-.15.15-.34.22-.53.22z" fill="#63913a" fill-opacity="1" data-original-color="#edebeaff" stroke="none" stroke-opacity="1"/></g></svg>